<mxfile host="65bd71144e">
    <diagram id="ULSZf8hEssvfGesQTTOY" name="Page-1">
        <mxGraphModel dx="2473" dy="1480" grid="1" gridSize="10" guides="1" tooltips="1" connect="1" arrows="1" fold="1" page="1" pageScale="1" pageWidth="827" pageHeight="1169" math="0" shadow="0">
            <root>
                <mxCell id="0"/>
                <mxCell id="1" parent="0"/>
                <mxCell id="8" value="" style="edgeStyle=none;html=1;" parent="1" source="2" target="6" edge="1">
                    <mxGeometry relative="1" as="geometry"/>
                </mxCell>
                <mxCell id="2" value="Cart.js" style="rounded=0;whiteSpace=wrap;html=1;" parent="1" vertex="1">
                    <mxGeometry x="40" y="220" width="150" height="70" as="geometry"/>
                </mxCell>
                <mxCell id="10" value="" style="edgeStyle=none;html=1;" parent="1" source="3" target="5" edge="1">
                    <mxGeometry relative="1" as="geometry"/>
                </mxCell>
                <mxCell id="3" value="APP.js" style="rounded=0;whiteSpace=wrap;html=1;" parent="1" vertex="1">
                    <mxGeometry x="50" y="20" width="290" height="60" as="geometry"/>
                </mxCell>
                <mxCell id="9" value="" style="edgeStyle=none;html=1;" parent="1" source="4" target="7" edge="1">
                    <mxGeometry relative="1" as="geometry"/>
                </mxCell>
                <mxCell id="4" value="Products.js" style="rounded=0;whiteSpace=wrap;html=1;" parent="1" vertex="1">
                    <mxGeometry x="200" y="220" width="140" height="70" as="geometry"/>
                </mxCell>
                <mxCell id="11" style="edgeStyle=none;html=1;entryX=0.5;entryY=0;entryDx=0;entryDy=0;" parent="1" source="5" target="2" edge="1">
                    <mxGeometry relative="1" as="geometry"/>
                </mxCell>
                <mxCell id="12" style="edgeStyle=none;html=1;entryX=0.5;entryY=0;entryDx=0;entryDy=0;" parent="1" source="5" target="4" edge="1">
                    <mxGeometry relative="1" as="geometry"/>
                </mxCell>
                <mxCell id="5" value="Layout.js" style="rounded=0;whiteSpace=wrap;html=1;" parent="1" vertex="1">
                    <mxGeometry x="50" y="110" width="290" height="60" as="geometry"/>
                </mxCell>
                <mxCell id="6" value="cartItem" style="rounded=0;whiteSpace=wrap;html=1;" parent="1" vertex="1">
                    <mxGeometry x="40" y="330" width="150" height="70" as="geometry"/>
                </mxCell>
                <mxCell id="7" value="productItem" style="rounded=0;whiteSpace=wrap;html=1;" parent="1" vertex="1">
                    <mxGeometry x="204" y="330" width="136" height="70" as="geometry"/>
                </mxCell>
                <mxCell id="32" style="edgeStyle=none;html=1;exitX=0.25;exitY=1;exitDx=0;exitDy=0;" parent="1" source="13" target="25" edge="1">
                    <mxGeometry relative="1" as="geometry"/>
                </mxCell>
                <mxCell id="33" style="edgeStyle=none;html=1;exitX=0.5;exitY=1;exitDx=0;exitDy=0;" parent="1" source="13" target="26" edge="1">
                    <mxGeometry relative="1" as="geometry"/>
                </mxCell>
                <mxCell id="34" style="edgeStyle=none;html=1;exitX=0.75;exitY=1;exitDx=0;exitDy=0;" parent="1" source="13" target="27" edge="1">
                    <mxGeometry relative="1" as="geometry"/>
                </mxCell>
                <mxCell id="13" value="STORE" style="rounded=0;whiteSpace=wrap;html=1;" parent="1" vertex="1">
                    <mxGeometry x="450" y="220" width="460" height="60" as="geometry"/>
                </mxCell>
                <mxCell id="16" value="" style="edgeStyle=none;html=1;" parent="1" source="14" target="13" edge="1">
                    <mxGeometry relative="1" as="geometry"/>
                </mxCell>
                <mxCell id="14" value="cartItem" style="rounded=0;whiteSpace=wrap;html=1;" parent="1" vertex="1">
                    <mxGeometry x="450" y="80" width="150" height="70" as="geometry"/>
                </mxCell>
                <mxCell id="17" value="" style="edgeStyle=none;html=1;" parent="1" source="15" target="13" edge="1">
                    <mxGeometry relative="1" as="geometry"/>
                </mxCell>
                <mxCell id="15" value="productItem" style="rounded=0;whiteSpace=wrap;html=1;" parent="1" vertex="1">
                    <mxGeometry x="614" y="80" width="136" height="70" as="geometry"/>
                </mxCell>
                <mxCell id="18" value="addTocart" style="text;html=1;strokeColor=none;fillColor=none;align=center;verticalAlign=middle;whiteSpace=wrap;rounded=0;" parent="1" vertex="1">
                    <mxGeometry x="680" y="180" width="60" height="30" as="geometry"/>
                </mxCell>
                <mxCell id="19" value="addTocart" style="text;html=1;strokeColor=none;fillColor=none;align=center;verticalAlign=middle;whiteSpace=wrap;rounded=0;" parent="1" vertex="1">
                    <mxGeometry x="480" y="160" width="60" height="30" as="geometry"/>
                </mxCell>
                <mxCell id="20" value="removeFromeCart" style="text;html=1;strokeColor=none;fillColor=none;align=center;verticalAlign=middle;whiteSpace=wrap;rounded=0;" parent="1" vertex="1">
                    <mxGeometry x="480" y="180" width="60" height="30" as="geometry"/>
                </mxCell>
                <mxCell id="22" style="edgeStyle=none;html=1;entryX=0.65;entryY=0.031;entryDx=0;entryDy=0;entryPerimeter=0;" parent="1" source="21" target="13" edge="1">
                    <mxGeometry relative="1" as="geometry"/>
                </mxCell>
                <mxCell id="21" value="cartButton" style="rounded=0;whiteSpace=wrap;html=1;" parent="1" vertex="1">
                    <mxGeometry x="780" y="80" width="136" height="70" as="geometry"/>
                </mxCell>
                <mxCell id="23" value="toggle" style="text;html=1;strokeColor=none;fillColor=none;align=center;verticalAlign=middle;whiteSpace=wrap;rounded=0;" parent="1" vertex="1">
                    <mxGeometry x="800" y="180" width="60" height="30" as="geometry"/>
                </mxCell>
                <mxCell id="25" value="Cart.js" style="rounded=0;whiteSpace=wrap;html=1;fontStyle=1" parent="1" vertex="1">
                    <mxGeometry x="435" y="370" width="150" height="70" as="geometry"/>
                </mxCell>
                <mxCell id="26" value="App.js" style="rounded=0;whiteSpace=wrap;html=1;fontStyle=1" parent="1" vertex="1">
                    <mxGeometry x="620" y="370" width="150" height="70" as="geometry"/>
                </mxCell>
                <mxCell id="27" value="cartButton.js" style="rounded=0;whiteSpace=wrap;html=1;fontStyle=1" parent="1" vertex="1">
                    <mxGeometry x="800" y="370" width="150" height="70" as="geometry"/>
                </mxCell>
                <mxCell id="28" value="&lt;div style=&quot;background-color: rgb(30 , 30 , 30) ; line-height: 19px&quot;&gt;&lt;div style=&quot;color: rgb(212 , 212 , 212) ; font-family: &amp;#34;consolas&amp;#34; , &amp;#34;courier new&amp;#34; , monospace ; font-size: 14px ; font-weight: normal&quot;&gt;&lt;span style=&quot;color: #9cdcfe&quot;&gt;state&lt;/span&gt;&lt;span style=&quot;color: #d4d4d4&quot;&gt;.&lt;/span&gt;&lt;span style=&quot;color: #9cdcfe&quot;&gt;cart&lt;/span&gt;&lt;span style=&quot;color: #d4d4d4&quot;&gt;.&lt;/span&gt;&lt;span style=&quot;color: #9cdcfe&quot;&gt;items[]&lt;/span&gt;&lt;/div&gt;&lt;div&gt;&lt;span style=&quot;color: rgb(156 , 220 , 254) ; font-family: &amp;#34;consolas&amp;#34; , &amp;#34;courier new&amp;#34; , monospace ; font-size: 14px ; font-weight: normal&quot;&gt;{&lt;/span&gt;&lt;font color=&quot;#9cdcfe&quot; face=&quot;consolas, courier new, monospace&quot;&gt;&lt;span style=&quot;font-size: 14px&quot;&gt;id,price,quantity,&lt;/span&gt;&lt;/font&gt;&lt;/div&gt;&lt;div&gt;&lt;font color=&quot;#9cdcfe&quot; face=&quot;consolas, courier new, monospace&quot;&gt;&lt;span style=&quot;font-size: 14px&quot;&gt;totalPrice,name}&lt;/span&gt;&lt;/font&gt;&lt;/div&gt;&lt;/div&gt;" style="text;whiteSpace=wrap;html=1;" parent="1" vertex="1">
                    <mxGeometry x="360" y="290" width="150" height="30" as="geometry"/>
                </mxCell>
                <mxCell id="29" value="&lt;div style=&quot;color: rgb(212, 212, 212); background-color: rgb(30, 30, 30); font-family: consolas, &amp;quot;courier new&amp;quot;, monospace; font-weight: normal; font-size: 14px; line-height: 19px;&quot;&gt;&lt;div&gt;&lt;span style=&quot;color: #9cdcfe&quot;&gt;state&lt;/span&gt;&lt;span style=&quot;color: #d4d4d4&quot;&gt;.&lt;/span&gt;&lt;span style=&quot;color: #9cdcfe&quot;&gt;ui&lt;/span&gt;&lt;span style=&quot;color: #d4d4d4&quot;&gt;.&lt;/span&gt;&lt;span style=&quot;color: #9cdcfe&quot;&gt;cartIsVisible&lt;/span&gt;&lt;/div&gt;&lt;/div&gt;" style="text;whiteSpace=wrap;html=1;" parent="1" vertex="1">
                    <mxGeometry x="620" y="310" width="190" height="30" as="geometry"/>
                </mxCell>
                <mxCell id="30" value="&lt;div style=&quot;color: rgb(212, 212, 212); background-color: rgb(30, 30, 30); font-family: consolas, &amp;quot;courier new&amp;quot;, monospace; font-weight: normal; font-size: 14px; line-height: 19px;&quot;&gt;&lt;div&gt;&lt;span style=&quot;color: #9cdcfe&quot;&gt;state&lt;/span&gt;&lt;span style=&quot;color: #d4d4d4&quot;&gt;.&lt;/span&gt;&lt;span style=&quot;color: #9cdcfe&quot;&gt;cart&lt;/span&gt;&lt;span style=&quot;color: #d4d4d4&quot;&gt;.&lt;/span&gt;&lt;span style=&quot;color: #9cdcfe&quot;&gt;totalQuantity&lt;/span&gt;&lt;/div&gt;&lt;/div&gt;" style="text;whiteSpace=wrap;html=1;" parent="1" vertex="1">
                    <mxGeometry x="820" y="310" width="210" height="30" as="geometry"/>
                </mxCell>
                <mxCell id="35" value="cartButton.js" style="rounded=0;whiteSpace=wrap;html=1;" parent="1" vertex="1">
                    <mxGeometry x="250" y="120" width="80" height="40" as="geometry"/>
                </mxCell>
                <mxCell id="36" value="cart-slice" style="rounded=0;whiteSpace=wrap;html=1;" parent="1" vertex="1">
                    <mxGeometry x="485" y="230" width="100" height="40" as="geometry"/>
                </mxCell>
                <mxCell id="37" value="ui-slice&amp;nbsp;" style="rounded=0;whiteSpace=wrap;html=1;" parent="1" vertex="1">
                    <mxGeometry x="780" y="230" width="100" height="40" as="geometry"/>
                </mxCell>
                <mxCell id="JecsxdH9SwQ_gYY76Wnm-37" value="" style="edgeStyle=none;html=1;" edge="1" parent="1" source="JecsxdH9SwQ_gYY76Wnm-40" target="JecsxdH9SwQ_gYY76Wnm-41">
                    <mxGeometry relative="1" as="geometry"/>
                </mxCell>
                <mxCell id="JecsxdH9SwQ_gYY76Wnm-38" style="edgeStyle=none;html=1;exitX=0.5;exitY=1;exitDx=0;exitDy=0;entryX=0.5;entryY=0;entryDx=0;entryDy=0;" edge="1" parent="1" source="JecsxdH9SwQ_gYY76Wnm-40" target="JecsxdH9SwQ_gYY76Wnm-42">
                    <mxGeometry relative="1" as="geometry"/>
                </mxCell>
                <mxCell id="JecsxdH9SwQ_gYY76Wnm-39" style="edgeStyle=none;html=1;exitX=0.5;exitY=1;exitDx=0;exitDy=0;entryX=0.597;entryY=0.007;entryDx=0;entryDy=0;entryPerimeter=0;" edge="1" parent="1" source="JecsxdH9SwQ_gYY76Wnm-40" target="JecsxdH9SwQ_gYY76Wnm-43">
                    <mxGeometry relative="1" as="geometry"/>
                </mxCell>
                <mxCell id="JecsxdH9SwQ_gYY76Wnm-40" value="fetch Data" style="rounded=0;whiteSpace=wrap;html=1;" vertex="1" parent="1">
                    <mxGeometry x="1180" y="50" width="120" height="60" as="geometry"/>
                </mxCell>
                <mxCell id="JecsxdH9SwQ_gYY76Wnm-41" value="thunk&lt;br&gt;(cart-actions)" style="whiteSpace=wrap;html=1;rounded=0;" vertex="1" parent="1">
                    <mxGeometry x="1180" y="190" width="120" height="60" as="geometry"/>
                </mxCell>
                <mxCell id="JecsxdH9SwQ_gYY76Wnm-42" value="App.js" style="whiteSpace=wrap;html=1;rounded=0;" vertex="1" parent="1">
                    <mxGeometry x="1040" y="190" width="120" height="60" as="geometry"/>
                </mxCell>
                <mxCell id="JecsxdH9SwQ_gYY76Wnm-43" value="component.js&lt;br&gt;(productItems)" style="whiteSpace=wrap;html=1;rounded=0;" vertex="1" parent="1">
                    <mxGeometry x="1330" y="190" width="120" height="60" as="geometry"/>
                </mxCell>
                <mxCell id="JecsxdH9SwQ_gYY76Wnm-44" value="無法共用fetch必須將add cart,remove cart 邏輯寫入&lt;br&gt;" style="text;html=1;strokeColor=none;fillColor=none;align=center;verticalAlign=middle;whiteSpace=wrap;rounded=0;" vertex="1" parent="1">
                    <mxGeometry x="1370" y="290" width="60" height="30" as="geometry"/>
                </mxCell>
                <mxCell id="JecsxdH9SwQ_gYY76Wnm-45" value="" style="edgeStyle=none;html=1;" edge="1" parent="1" source="JecsxdH9SwQ_gYY76Wnm-46" target="JecsxdH9SwQ_gYY76Wnm-48">
                    <mxGeometry relative="1" as="geometry"/>
                </mxCell>
                <mxCell id="JecsxdH9SwQ_gYY76Wnm-46" value="UI cart change" style="rounded=0;whiteSpace=wrap;html=1;" vertex="1" parent="1">
                    <mxGeometry x="1040" y="310" width="120" height="60" as="geometry"/>
                </mxCell>
                <mxCell id="JecsxdH9SwQ_gYY76Wnm-47" value="" style="edgeStyle=none;html=1;" edge="1" parent="1" source="JecsxdH9SwQ_gYY76Wnm-48" target="JecsxdH9SwQ_gYY76Wnm-50">
                    <mxGeometry relative="1" as="geometry"/>
                </mxCell>
                <mxCell id="JecsxdH9SwQ_gYY76Wnm-48" value="Store" style="ellipse;whiteSpace=wrap;html=1;aspect=fixed;" vertex="1" parent="1">
                    <mxGeometry x="1060" y="420" width="80" height="80" as="geometry"/>
                </mxCell>
                <mxCell id="JecsxdH9SwQ_gYY76Wnm-49" value="" style="edgeStyle=none;html=1;" edge="1" parent="1" source="JecsxdH9SwQ_gYY76Wnm-50" target="JecsxdH9SwQ_gYY76Wnm-51">
                    <mxGeometry relative="1" as="geometry"/>
                </mxCell>
                <mxCell id="JecsxdH9SwQ_gYY76Wnm-50" value="Use Effect" style="whiteSpace=wrap;html=1;" vertex="1" parent="1">
                    <mxGeometry x="1040" y="540" width="120" height="60" as="geometry"/>
                </mxCell>
                <mxCell id="JecsxdH9SwQ_gYY76Wnm-51" value="Call fetch" style="whiteSpace=wrap;html=1;" vertex="1" parent="1">
                    <mxGeometry x="1040" y="630" width="120" height="60" as="geometry"/>
                </mxCell>
                <mxCell id="JecsxdH9SwQ_gYY76Wnm-52" value="" style="edgeStyle=none;html=1;" edge="1" parent="1" source="JecsxdH9SwQ_gYY76Wnm-53" target="JecsxdH9SwQ_gYY76Wnm-55">
                    <mxGeometry relative="1" as="geometry"/>
                </mxCell>
                <mxCell id="JecsxdH9SwQ_gYY76Wnm-53" value="UI cart change" style="rounded=0;whiteSpace=wrap;html=1;" vertex="1" parent="1">
                    <mxGeometry x="1200" y="310" width="120" height="60" as="geometry"/>
                </mxCell>
                <mxCell id="JecsxdH9SwQ_gYY76Wnm-54" value="" style="edgeStyle=none;html=1;" edge="1" parent="1" source="JecsxdH9SwQ_gYY76Wnm-55" target="JecsxdH9SwQ_gYY76Wnm-57">
                    <mxGeometry relative="1" as="geometry"/>
                </mxCell>
                <mxCell id="JecsxdH9SwQ_gYY76Wnm-55" value="Store" style="ellipse;whiteSpace=wrap;html=1;aspect=fixed;" vertex="1" parent="1">
                    <mxGeometry x="1220" y="420" width="80" height="80" as="geometry"/>
                </mxCell>
                <mxCell id="JecsxdH9SwQ_gYY76Wnm-56" value="" style="edgeStyle=none;html=1;" edge="1" parent="1" source="JecsxdH9SwQ_gYY76Wnm-57" target="JecsxdH9SwQ_gYY76Wnm-58">
                    <mxGeometry relative="1" as="geometry"/>
                </mxCell>
                <mxCell id="JecsxdH9SwQ_gYY76Wnm-57" value="Use Effect" style="whiteSpace=wrap;html=1;" vertex="1" parent="1">
                    <mxGeometry x="1200" y="540" width="120" height="60" as="geometry"/>
                </mxCell>
                <mxCell id="JecsxdH9SwQ_gYY76Wnm-58" value="Call cart actions.js" style="whiteSpace=wrap;html=1;" vertex="1" parent="1">
                    <mxGeometry x="1200" y="630" width="120" height="60" as="geometry"/>
                </mxCell>
                <mxCell id="JecsxdH9SwQ_gYY76Wnm-59" value="&lt;div style=&quot;color: rgb(212, 212, 212); background-color: rgb(30, 30, 30); font-family: consolas, &amp;quot;courier new&amp;quot;, monospace; font-weight: normal; font-size: 14px; line-height: 19px;&quot;&gt;&lt;br&gt;&lt;div&gt;&lt;span style=&quot;color: #d4d4d4&quot;&gt;&amp;nbsp;&amp;nbsp;&lt;/span&gt;&lt;span style=&quot;color: #dcdcaa&quot;&gt;useEffect&lt;/span&gt;&lt;span style=&quot;color: #d4d4d4&quot;&gt;(()&amp;nbsp;&lt;/span&gt;&lt;span style=&quot;color: #569cd6&quot;&gt;=&amp;gt;&lt;/span&gt;&lt;span style=&quot;color: #d4d4d4&quot;&gt;&amp;nbsp;{&lt;/span&gt;&lt;/div&gt;&lt;div&gt;&lt;span style=&quot;color: #d4d4d4&quot;&gt;&amp;nbsp;&amp;nbsp;&amp;nbsp;&amp;nbsp;&lt;/span&gt;&lt;span style=&quot;color: #dcdcaa&quot;&gt;dispatch&lt;/span&gt;&lt;span style=&quot;color: #d4d4d4&quot;&gt;(&lt;/span&gt;&lt;span style=&quot;color: #dcdcaa&quot;&gt;fetchCartData&lt;/span&gt;&lt;span style=&quot;color: #d4d4d4&quot;&gt;());&lt;/span&gt;&lt;/div&gt;&lt;div&gt;&lt;span style=&quot;color: #d4d4d4&quot;&gt;&amp;nbsp;&amp;nbsp;},&amp;nbsp;[&lt;/span&gt;&lt;span style=&quot;color: #dcdcaa&quot;&gt;dispatch&lt;/span&gt;&lt;span style=&quot;color: #d4d4d4&quot;&gt;]);&amp;nbsp;&lt;/span&gt;&lt;span style=&quot;color: #6a9955&quot;&gt;//why&amp;nbsp;dispatch?&lt;/span&gt;&lt;/div&gt;&lt;br&gt;&lt;div&gt;&lt;span style=&quot;color: #d4d4d4&quot;&gt;&amp;nbsp;&amp;nbsp;&lt;/span&gt;&lt;span style=&quot;color: #dcdcaa&quot;&gt;useEffect&lt;/span&gt;&lt;span style=&quot;color: #d4d4d4&quot;&gt;(()&amp;nbsp;&lt;/span&gt;&lt;span style=&quot;color: #569cd6&quot;&gt;=&amp;gt;&lt;/span&gt;&lt;span style=&quot;color: #d4d4d4&quot;&gt;&amp;nbsp;{&lt;/span&gt;&lt;/div&gt;&lt;div&gt;&lt;span style=&quot;color: #d4d4d4&quot;&gt;&amp;nbsp;&amp;nbsp;&amp;nbsp;&amp;nbsp;&lt;/span&gt;&lt;span style=&quot;color: #c586c0&quot;&gt;if&lt;/span&gt;&lt;span style=&quot;color: #d4d4d4&quot;&gt;&amp;nbsp;(&lt;/span&gt;&lt;span style=&quot;color: #9cdcfe&quot;&gt;isInitial&lt;/span&gt;&lt;span style=&quot;color: #d4d4d4&quot;&gt;)&amp;nbsp;{&lt;/span&gt;&lt;/div&gt;&lt;div&gt;&lt;span style=&quot;color: #d4d4d4&quot;&gt;&amp;nbsp;&amp;nbsp;&amp;nbsp;&amp;nbsp;&amp;nbsp;&amp;nbsp;&lt;/span&gt;&lt;span style=&quot;color: #9cdcfe&quot;&gt;isInitial&lt;/span&gt;&lt;span style=&quot;color: #d4d4d4&quot;&gt;&amp;nbsp;=&amp;nbsp;&lt;/span&gt;&lt;span style=&quot;color: #569cd6&quot;&gt;false&lt;/span&gt;&lt;span style=&quot;color: #d4d4d4&quot;&gt;;&lt;/span&gt;&lt;/div&gt;&lt;div&gt;&lt;span style=&quot;color: #d4d4d4&quot;&gt;&amp;nbsp;&amp;nbsp;&amp;nbsp;&amp;nbsp;&amp;nbsp;&amp;nbsp;&lt;/span&gt;&lt;span style=&quot;color: #c586c0&quot;&gt;return&lt;/span&gt;&lt;span style=&quot;color: #d4d4d4&quot;&gt;;&lt;/span&gt;&lt;/div&gt;&lt;div&gt;&lt;span style=&quot;color: #d4d4d4&quot;&gt;&amp;nbsp;&amp;nbsp;&amp;nbsp;&amp;nbsp;}&lt;/span&gt;&lt;/div&gt;&lt;br&gt;&lt;div&gt;&lt;span style=&quot;color: #d4d4d4&quot;&gt;&amp;nbsp;&amp;nbsp;&amp;nbsp;&amp;nbsp;&lt;/span&gt;&lt;span style=&quot;color: #c586c0&quot;&gt;if&lt;/span&gt;&lt;span style=&quot;color: #d4d4d4&quot;&gt;&amp;nbsp;(&lt;/span&gt;&lt;span style=&quot;color: #4fc1ff&quot;&gt;cart&lt;/span&gt;&lt;span style=&quot;color: #d4d4d4&quot;&gt;.&lt;/span&gt;&lt;span style=&quot;color: #9cdcfe&quot;&gt;changed&lt;/span&gt;&lt;span style=&quot;color: #d4d4d4&quot;&gt;&amp;nbsp;==&amp;nbsp;&lt;/span&gt;&lt;span style=&quot;color: #569cd6&quot;&gt;true&lt;/span&gt;&lt;span style=&quot;color: #d4d4d4&quot;&gt;)&amp;nbsp;{&lt;/span&gt;&lt;/div&gt;&lt;div&gt;&lt;span style=&quot;color: #d4d4d4&quot;&gt;&amp;nbsp;&amp;nbsp;&amp;nbsp;&amp;nbsp;&amp;nbsp;&amp;nbsp;&lt;/span&gt;&lt;span style=&quot;color: #dcdcaa&quot;&gt;dispatch&lt;/span&gt;&lt;span style=&quot;color: #d4d4d4&quot;&gt;(&lt;/span&gt;&lt;span style=&quot;color: #dcdcaa&quot;&gt;sendCartData&lt;/span&gt;&lt;span style=&quot;color: #d4d4d4&quot;&gt;(&lt;/span&gt;&lt;span style=&quot;color: #4fc1ff&quot;&gt;cart&lt;/span&gt;&lt;span style=&quot;color: #d4d4d4&quot;&gt;));&lt;/span&gt;&lt;/div&gt;&lt;div&gt;&lt;span style=&quot;color: #d4d4d4&quot;&gt;&amp;nbsp;&amp;nbsp;&amp;nbsp;&amp;nbsp;}&lt;/span&gt;&lt;/div&gt;&lt;div&gt;&lt;span style=&quot;color: #d4d4d4&quot;&gt;&amp;nbsp;&amp;nbsp;},&amp;nbsp;[&lt;/span&gt;&lt;span style=&quot;color: #4fc1ff&quot;&gt;cart&lt;/span&gt;&lt;span style=&quot;color: #d4d4d4&quot;&gt;,&amp;nbsp;&lt;/span&gt;&lt;span style=&quot;color: #dcdcaa&quot;&gt;dispatch&lt;/span&gt;&lt;span style=&quot;color: #d4d4d4&quot;&gt;]);&amp;nbsp;&lt;/span&gt;&lt;span style=&quot;color: #6a9955&quot;&gt;//why&amp;nbsp;dispatch&lt;/span&gt;&lt;/div&gt;&lt;/div&gt;" style="text;whiteSpace=wrap;html=1;" vertex="1" parent="1">
                    <mxGeometry x="1320" y="420" width="320" height="300" as="geometry"/>
                </mxCell>
            </root>
        </mxGraphModel>
    </diagram>
    <diagram id="ceZsF4BoErAvYfa1tucL" name="Page-2">
        <mxGraphModel dx="1484" dy="888" grid="1" gridSize="10" guides="1" tooltips="1" connect="1" arrows="1" fold="1" page="1" pageScale="1" pageWidth="827" pageHeight="1169" math="0" shadow="0">
            <root>
                <mxCell id="1YeK-KPzdant62sR0e7o-0"/>
                <mxCell id="1YeK-KPzdant62sR0e7o-1" parent="1YeK-KPzdant62sR0e7o-0"/>
                <mxCell id="1YeK-KPzdant62sR0e7o-4" value="" style="edgeStyle=none;html=1;" edge="1" parent="1YeK-KPzdant62sR0e7o-1" source="1YeK-KPzdant62sR0e7o-2" target="1YeK-KPzdant62sR0e7o-3">
                    <mxGeometry relative="1" as="geometry"/>
                </mxCell>
                <mxCell id="1YeK-KPzdant62sR0e7o-7" style="edgeStyle=none;html=1;exitX=0.5;exitY=1;exitDx=0;exitDy=0;entryX=0.5;entryY=0;entryDx=0;entryDy=0;" edge="1" parent="1YeK-KPzdant62sR0e7o-1" source="1YeK-KPzdant62sR0e7o-2" target="1YeK-KPzdant62sR0e7o-5">
                    <mxGeometry relative="1" as="geometry"/>
                </mxCell>
                <mxCell id="1YeK-KPzdant62sR0e7o-8" style="edgeStyle=none;html=1;exitX=0.5;exitY=1;exitDx=0;exitDy=0;entryX=0.597;entryY=0.007;entryDx=0;entryDy=0;entryPerimeter=0;" edge="1" parent="1YeK-KPzdant62sR0e7o-1" source="1YeK-KPzdant62sR0e7o-2" target="1YeK-KPzdant62sR0e7o-6">
                    <mxGeometry relative="1" as="geometry"/>
                </mxCell>
                <mxCell id="1YeK-KPzdant62sR0e7o-2" value="fetch Data" style="rounded=0;whiteSpace=wrap;html=1;" vertex="1" parent="1YeK-KPzdant62sR0e7o-1">
                    <mxGeometry x="190" y="20" width="120" height="60" as="geometry"/>
                </mxCell>
                <mxCell id="1YeK-KPzdant62sR0e7o-3" value="thunk&lt;br&gt;(cart-actions)" style="whiteSpace=wrap;html=1;rounded=0;" vertex="1" parent="1YeK-KPzdant62sR0e7o-1">
                    <mxGeometry x="190" y="160" width="120" height="60" as="geometry"/>
                </mxCell>
                <mxCell id="1YeK-KPzdant62sR0e7o-5" value="App.js" style="whiteSpace=wrap;html=1;rounded=0;" vertex="1" parent="1YeK-KPzdant62sR0e7o-1">
                    <mxGeometry x="50" y="160" width="120" height="60" as="geometry"/>
                </mxCell>
                <mxCell id="1YeK-KPzdant62sR0e7o-6" value="component.js&lt;br&gt;(productItems)" style="whiteSpace=wrap;html=1;rounded=0;" vertex="1" parent="1YeK-KPzdant62sR0e7o-1">
                    <mxGeometry x="340" y="160" width="120" height="60" as="geometry"/>
                </mxCell>
                <mxCell id="1YeK-KPzdant62sR0e7o-10" value="無法共用fetch必須將add cart,remove cart 邏輯寫入&lt;br&gt;" style="text;html=1;strokeColor=none;fillColor=none;align=center;verticalAlign=middle;whiteSpace=wrap;rounded=0;" vertex="1" parent="1YeK-KPzdant62sR0e7o-1">
                    <mxGeometry x="380" y="260" width="60" height="30" as="geometry"/>
                </mxCell>
                <mxCell id="1YeK-KPzdant62sR0e7o-16" value="" style="edgeStyle=none;html=1;" edge="1" parent="1YeK-KPzdant62sR0e7o-1" source="1YeK-KPzdant62sR0e7o-12" target="1YeK-KPzdant62sR0e7o-13">
                    <mxGeometry relative="1" as="geometry"/>
                </mxCell>
                <mxCell id="1YeK-KPzdant62sR0e7o-12" value="UI cart change" style="rounded=0;whiteSpace=wrap;html=1;" vertex="1" parent="1YeK-KPzdant62sR0e7o-1">
                    <mxGeometry x="50" y="280" width="120" height="60" as="geometry"/>
                </mxCell>
                <mxCell id="1YeK-KPzdant62sR0e7o-15" value="" style="edgeStyle=none;html=1;" edge="1" parent="1YeK-KPzdant62sR0e7o-1" source="1YeK-KPzdant62sR0e7o-13" target="1YeK-KPzdant62sR0e7o-14">
                    <mxGeometry relative="1" as="geometry"/>
                </mxCell>
                <mxCell id="1YeK-KPzdant62sR0e7o-13" value="Store" style="ellipse;whiteSpace=wrap;html=1;aspect=fixed;" vertex="1" parent="1YeK-KPzdant62sR0e7o-1">
                    <mxGeometry x="70" y="390" width="80" height="80" as="geometry"/>
                </mxCell>
                <mxCell id="1YeK-KPzdant62sR0e7o-18" value="" style="edgeStyle=none;html=1;" edge="1" parent="1YeK-KPzdant62sR0e7o-1" source="1YeK-KPzdant62sR0e7o-14" target="1YeK-KPzdant62sR0e7o-17">
                    <mxGeometry relative="1" as="geometry"/>
                </mxCell>
                <mxCell id="1YeK-KPzdant62sR0e7o-14" value="Use Effect" style="whiteSpace=wrap;html=1;" vertex="1" parent="1YeK-KPzdant62sR0e7o-1">
                    <mxGeometry x="50" y="510" width="120" height="60" as="geometry"/>
                </mxCell>
                <mxCell id="1YeK-KPzdant62sR0e7o-17" value="Call fetch" style="whiteSpace=wrap;html=1;" vertex="1" parent="1YeK-KPzdant62sR0e7o-1">
                    <mxGeometry x="50" y="600" width="120" height="60" as="geometry"/>
                </mxCell>
                <mxCell id="1YeK-KPzdant62sR0e7o-19" value="" style="edgeStyle=none;html=1;" edge="1" parent="1YeK-KPzdant62sR0e7o-1" source="1YeK-KPzdant62sR0e7o-20" target="1YeK-KPzdant62sR0e7o-22">
                    <mxGeometry relative="1" as="geometry"/>
                </mxCell>
                <mxCell id="1YeK-KPzdant62sR0e7o-20" value="UI cart change" style="rounded=0;whiteSpace=wrap;html=1;" vertex="1" parent="1YeK-KPzdant62sR0e7o-1">
                    <mxGeometry x="210" y="280" width="120" height="60" as="geometry"/>
                </mxCell>
                <mxCell id="1YeK-KPzdant62sR0e7o-21" value="" style="edgeStyle=none;html=1;" edge="1" parent="1YeK-KPzdant62sR0e7o-1" source="1YeK-KPzdant62sR0e7o-22" target="1YeK-KPzdant62sR0e7o-24">
                    <mxGeometry relative="1" as="geometry"/>
                </mxCell>
                <mxCell id="1YeK-KPzdant62sR0e7o-22" value="Store" style="ellipse;whiteSpace=wrap;html=1;aspect=fixed;" vertex="1" parent="1YeK-KPzdant62sR0e7o-1">
                    <mxGeometry x="230" y="390" width="80" height="80" as="geometry"/>
                </mxCell>
                <mxCell id="1YeK-KPzdant62sR0e7o-23" value="" style="edgeStyle=none;html=1;" edge="1" parent="1YeK-KPzdant62sR0e7o-1" source="1YeK-KPzdant62sR0e7o-24" target="1YeK-KPzdant62sR0e7o-25">
                    <mxGeometry relative="1" as="geometry"/>
                </mxCell>
                <mxCell id="1YeK-KPzdant62sR0e7o-24" value="Use Effect" style="whiteSpace=wrap;html=1;" vertex="1" parent="1YeK-KPzdant62sR0e7o-1">
                    <mxGeometry x="210" y="510" width="120" height="60" as="geometry"/>
                </mxCell>
                <mxCell id="1YeK-KPzdant62sR0e7o-25" value="Call cart actions.js" style="whiteSpace=wrap;html=1;" vertex="1" parent="1YeK-KPzdant62sR0e7o-1">
                    <mxGeometry x="210" y="600" width="120" height="60" as="geometry"/>
                </mxCell>
                <mxCell id="1YeK-KPzdant62sR0e7o-26" value="&lt;div style=&quot;color: rgb(212, 212, 212); background-color: rgb(30, 30, 30); font-family: consolas, &amp;quot;courier new&amp;quot;, monospace; font-weight: normal; font-size: 14px; line-height: 19px;&quot;&gt;&lt;br&gt;&lt;div&gt;&lt;span style=&quot;color: #d4d4d4&quot;&gt;&amp;nbsp;&amp;nbsp;&lt;/span&gt;&lt;span style=&quot;color: #dcdcaa&quot;&gt;useEffect&lt;/span&gt;&lt;span style=&quot;color: #d4d4d4&quot;&gt;(()&amp;nbsp;&lt;/span&gt;&lt;span style=&quot;color: #569cd6&quot;&gt;=&amp;gt;&lt;/span&gt;&lt;span style=&quot;color: #d4d4d4&quot;&gt;&amp;nbsp;{&lt;/span&gt;&lt;/div&gt;&lt;div&gt;&lt;span style=&quot;color: #d4d4d4&quot;&gt;&amp;nbsp;&amp;nbsp;&amp;nbsp;&amp;nbsp;&lt;/span&gt;&lt;span style=&quot;color: #dcdcaa&quot;&gt;dispatch&lt;/span&gt;&lt;span style=&quot;color: #d4d4d4&quot;&gt;(&lt;/span&gt;&lt;span style=&quot;color: #dcdcaa&quot;&gt;fetchCartData&lt;/span&gt;&lt;span style=&quot;color: #d4d4d4&quot;&gt;());&lt;/span&gt;&lt;/div&gt;&lt;div&gt;&lt;span style=&quot;color: #d4d4d4&quot;&gt;&amp;nbsp;&amp;nbsp;},&amp;nbsp;[&lt;/span&gt;&lt;span style=&quot;color: #dcdcaa&quot;&gt;dispatch&lt;/span&gt;&lt;span style=&quot;color: #d4d4d4&quot;&gt;]);&amp;nbsp;&lt;/span&gt;&lt;span style=&quot;color: #6a9955&quot;&gt;//why&amp;nbsp;dispatch?&lt;/span&gt;&lt;/div&gt;&lt;br&gt;&lt;div&gt;&lt;span style=&quot;color: #d4d4d4&quot;&gt;&amp;nbsp;&amp;nbsp;&lt;/span&gt;&lt;span style=&quot;color: #dcdcaa&quot;&gt;useEffect&lt;/span&gt;&lt;span style=&quot;color: #d4d4d4&quot;&gt;(()&amp;nbsp;&lt;/span&gt;&lt;span style=&quot;color: #569cd6&quot;&gt;=&amp;gt;&lt;/span&gt;&lt;span style=&quot;color: #d4d4d4&quot;&gt;&amp;nbsp;{&lt;/span&gt;&lt;/div&gt;&lt;div&gt;&lt;span style=&quot;color: #d4d4d4&quot;&gt;&amp;nbsp;&amp;nbsp;&amp;nbsp;&amp;nbsp;&lt;/span&gt;&lt;span style=&quot;color: #c586c0&quot;&gt;if&lt;/span&gt;&lt;span style=&quot;color: #d4d4d4&quot;&gt;&amp;nbsp;(&lt;/span&gt;&lt;span style=&quot;color: #9cdcfe&quot;&gt;isInitial&lt;/span&gt;&lt;span style=&quot;color: #d4d4d4&quot;&gt;)&amp;nbsp;{&lt;/span&gt;&lt;/div&gt;&lt;div&gt;&lt;span style=&quot;color: #d4d4d4&quot;&gt;&amp;nbsp;&amp;nbsp;&amp;nbsp;&amp;nbsp;&amp;nbsp;&amp;nbsp;&lt;/span&gt;&lt;span style=&quot;color: #9cdcfe&quot;&gt;isInitial&lt;/span&gt;&lt;span style=&quot;color: #d4d4d4&quot;&gt;&amp;nbsp;=&amp;nbsp;&lt;/span&gt;&lt;span style=&quot;color: #569cd6&quot;&gt;false&lt;/span&gt;&lt;span style=&quot;color: #d4d4d4&quot;&gt;;&lt;/span&gt;&lt;/div&gt;&lt;div&gt;&lt;span style=&quot;color: #d4d4d4&quot;&gt;&amp;nbsp;&amp;nbsp;&amp;nbsp;&amp;nbsp;&amp;nbsp;&amp;nbsp;&lt;/span&gt;&lt;span style=&quot;color: #c586c0&quot;&gt;return&lt;/span&gt;&lt;span style=&quot;color: #d4d4d4&quot;&gt;;&lt;/span&gt;&lt;/div&gt;&lt;div&gt;&lt;span style=&quot;color: #d4d4d4&quot;&gt;&amp;nbsp;&amp;nbsp;&amp;nbsp;&amp;nbsp;}&lt;/span&gt;&lt;/div&gt;&lt;br&gt;&lt;div&gt;&lt;span style=&quot;color: #d4d4d4&quot;&gt;&amp;nbsp;&amp;nbsp;&amp;nbsp;&amp;nbsp;&lt;/span&gt;&lt;span style=&quot;color: #c586c0&quot;&gt;if&lt;/span&gt;&lt;span style=&quot;color: #d4d4d4&quot;&gt;&amp;nbsp;(&lt;/span&gt;&lt;span style=&quot;color: #4fc1ff&quot;&gt;cart&lt;/span&gt;&lt;span style=&quot;color: #d4d4d4&quot;&gt;.&lt;/span&gt;&lt;span style=&quot;color: #9cdcfe&quot;&gt;changed&lt;/span&gt;&lt;span style=&quot;color: #d4d4d4&quot;&gt;&amp;nbsp;==&amp;nbsp;&lt;/span&gt;&lt;span style=&quot;color: #569cd6&quot;&gt;true&lt;/span&gt;&lt;span style=&quot;color: #d4d4d4&quot;&gt;)&amp;nbsp;{&lt;/span&gt;&lt;/div&gt;&lt;div&gt;&lt;span style=&quot;color: #d4d4d4&quot;&gt;&amp;nbsp;&amp;nbsp;&amp;nbsp;&amp;nbsp;&amp;nbsp;&amp;nbsp;&lt;/span&gt;&lt;span style=&quot;color: #dcdcaa&quot;&gt;dispatch&lt;/span&gt;&lt;span style=&quot;color: #d4d4d4&quot;&gt;(&lt;/span&gt;&lt;span style=&quot;color: #dcdcaa&quot;&gt;sendCartData&lt;/span&gt;&lt;span style=&quot;color: #d4d4d4&quot;&gt;(&lt;/span&gt;&lt;span style=&quot;color: #4fc1ff&quot;&gt;cart&lt;/span&gt;&lt;span style=&quot;color: #d4d4d4&quot;&gt;));&lt;/span&gt;&lt;/div&gt;&lt;div&gt;&lt;span style=&quot;color: #d4d4d4&quot;&gt;&amp;nbsp;&amp;nbsp;&amp;nbsp;&amp;nbsp;}&lt;/span&gt;&lt;/div&gt;&lt;div&gt;&lt;span style=&quot;color: #d4d4d4&quot;&gt;&amp;nbsp;&amp;nbsp;},&amp;nbsp;[&lt;/span&gt;&lt;span style=&quot;color: #4fc1ff&quot;&gt;cart&lt;/span&gt;&lt;span style=&quot;color: #d4d4d4&quot;&gt;,&amp;nbsp;&lt;/span&gt;&lt;span style=&quot;color: #dcdcaa&quot;&gt;dispatch&lt;/span&gt;&lt;span style=&quot;color: #d4d4d4&quot;&gt;]);&amp;nbsp;&lt;/span&gt;&lt;span style=&quot;color: #6a9955&quot;&gt;//why&amp;nbsp;dispatch&lt;/span&gt;&lt;/div&gt;&lt;/div&gt;" style="text;whiteSpace=wrap;html=1;" vertex="1" parent="1YeK-KPzdant62sR0e7o-1">
                    <mxGeometry x="330" y="390" width="320" height="300" as="geometry"/>
                </mxCell>
            </root>
        </mxGraphModel>
    </diagram>
</mxfile>